<svg width="258" height="107" viewBox="0 0 258 107" fill="none" xmlns="http://www.w3.org/2000/svg">
<path d="M110.142 53.5C110.135 47.2057 108.953 40.968 106.657 35.1078C106.064 53.9707 86.0734 68.5798 74.344 78.2553H103.711C107.943 70.6915 110.163 62.1678 110.16 53.5M88.9143 11.9389C79.193 4.68995 67.3849 0.787509 55.2597 0.816444C24.9514 0.816444 0.377136 24.4037 0.377136 53.5C0.377136 82.5962 24.9514 106.184 55.2597 106.184C68.4958 106.225 81.3173 101.567 91.4414 93.0388H51.7043L51.5997 81.8291C75.5291 61.868 90.204 48.3571 90.204 35.2996C90.204 30.4531 88.2868 24.334 79.6248 24.334C72.7754 24.334 66.1526 28.1345 67.4249 44.0685H53.482C49.9963 25.6066 60.4534 10.9452 80.4266 10.9452C83.3152 10.9341 86.1945 11.2736 89.0014 11.9563" fill="white"/>
<path d="M161.051 37.2347H174.035C174.471 27.7509 171.142 12.828 149.74 12.828C134.054 12.828 122.551 21.8759 122.551 40.7213C122.551 43.284 122.656 56.4113 122.656 64.6922C122.656 85.1415 137.418 89.6218 149.845 89.6218C157.287 89.6218 168.04 88.018 173.042 82.8054V50.2051H148.642V62.0249H159.517V76.4074C151.309 79.0747 136.32 80.1381 136.32 62.0249V40.6342C136.32 27.9601 142.437 23.6018 149.2 23.6018C155.962 23.6018 161.069 27.0885 161.069 37.2347M257.623 68.8587C258.181 39.6753 223.341 49.3683 223.672 33.0681C223.794 27.3325 227.681 23.6018 233.99 23.6018C240.769 23.6018 244.761 27.4371 244.639 37.4439H257.414C257.745 28.396 255.531 13.0372 234.443 13.0372C221.354 13.0372 210.583 19.2086 210.357 32.9461C209.816 60.9614 244.865 51.809 244.307 68.7367C244.098 75.7101 238.887 78.7434 232.996 78.7434C226.112 78.7434 220.57 74.9081 221.685 63.4195H208.805C207.376 78.6388 214.365 89.5695 232.892 89.5695C248.577 89.5695 257.414 81.2538 257.623 68.9982M199.011 88.5933H185.922V13.9089H199.011V88.5933ZM199.011 88.5933H185.922V13.9089H199.011V88.5933Z" fill="white"/>
</svg>
