<svg width="261" height="261" viewBox="0 0 261 261" fill="none" xmlns="http://www.w3.org/2000/svg">
<path fill-rule="evenodd" clip-rule="evenodd" d="M101.556 0.32264C93.8364 1.32594 86.7941 5.04266 80.9156 11.2164C76.1817 16.1881 73.4127 21.3404 71.949 27.9019C71.0986 31.7137 71.2023 41.3641 72.1403 45.7106C73.1775 50.5153 74.52 54.315 76.9455 59.3099C80.4023 66.4281 84.86 72.6985 91.9851 80.4638C95.9332 84.7664 138.255 126.907 138.628 126.907C138.769 126.907 140.596 125.19 142.69 123.093L146.496 119.278L122.932 95.6561C109.971 82.6641 98.2451 70.6792 96.8731 69.0232C88.7203 59.1849 84.7317 51.7724 82.8259 42.919C81.9984 39.075 82.0636 33.1124 82.9697 29.765C85.3246 21.0665 92.0876 14.1201 100.363 11.901C103.277 11.1194 108.485 10.9556 111.343 11.5558C118.08 12.9701 124.168 17.9287 127.971 25.0994C129.211 27.4368 129.685 27.8367 130.866 27.5409C131.495 27.3828 131.962 26.827 132.709 25.3466C134.251 22.2896 136.084 19.7445 138.374 17.4792C149.437 6.53775 168.829 10.3445 176.162 24.8968C178.016 28.5763 178.595 31.2989 178.612 36.4064C178.628 41.5536 178.09 44.6268 176.358 49.2896C172.302 60.2066 167.761 66.0069 146.528 87.3927L133.805 100.207L137.692 104.092L141.579 107.977L152.737 96.8445C164.86 84.7518 172.075 77.1469 175.672 72.6702C188.059 57.2552 192.595 39.987 188.204 24.9547C186.583 19.4054 183.692 14.6755 179.23 10.2707C172.091 3.22438 162.32 -0.499659 152.529 0.0945587C144.457 0.584438 138.603 2.93904 132.417 8.18425L130.403 9.89215L129.02 8.61878C121.741 1.91252 111.99 -1.03312 101.556 0.32264ZM218.469 71.2515C206.248 72.6321 195.447 77.9686 183.249 88.6546C180.081 91.4298 165.637 105.926 140.624 131.437L133.463 138.74L137.282 142.541L141.101 146.342L165.131 122.213C178.347 108.942 190.592 96.9002 192.343 95.4538C200.306 88.8732 207.177 85.1345 215.01 83.118C219.569 81.9449 226.183 81.8622 230.259 82.9278C238.414 85.0597 244.731 90.2012 248.007 97.3742C249.582 100.82 249.954 102.7 249.918 107.025C249.88 111.45 249.082 114.46 247.014 117.973C244.759 121.804 238.77 127.038 235.352 128.165C234.004 128.61 233.329 129.786 233.745 130.968C233.957 131.569 234.699 132.185 236.195 133.002C239.344 134.723 241.178 136.162 243.876 139.029C255.488 151.366 250.033 170.982 233.181 177.488C222.446 181.632 209.747 178.651 196.877 168.965C193.685 166.563 179.788 153.191 166.519 139.754C163.17 136.363 160.303 133.587 160.149 133.587C159.995 133.587 158.153 135.31 156.055 137.416L152.241 141.245L168.472 157.393C188.166 176.984 192.632 180.717 201.417 184.929C210.235 189.157 218.754 190.942 226.611 190.207C236.851 189.25 244.627 185.588 251.408 178.532C255.748 174.015 258.325 169.456 259.875 163.554C260.876 159.742 261.232 152.73 260.617 148.917C259.695 143.202 257.226 137.66 253.579 133.117L251.351 130.341L252.896 128.704C258.92 122.316 261.625 113.776 260.879 103.492C260.176 93.8028 254.922 84.5387 246.698 78.4874C244.334 76.7486 239.937 74.4608 236.816 73.3468C231.708 71.5235 223.928 70.6347 218.469 71.2515ZM29.4762 71.8489C17.9885 74.3517 8.851 80.9365 3.78732 90.3609C0.907295 95.7213 -0.238158 101.194 0.0406465 108.262C0.362418 116.428 2.64378 122.256 7.97767 128.54L9.7186 130.592L8.61611 131.851C4.56422 136.478 2.07757 141.225 0.670502 147.02C0.240201 148.793 0.114168 150.596 0.131991 154.741C0.152997 159.6 0.243384 160.47 1.02346 163.319C4.47701 175.929 15.2622 186.147 28.416 189.269C42.3655 192.58 57.4149 188.236 72.1957 176.633C74.0884 175.147 84.8915 164.543 101.079 148.282L126.938 122.304L123.119 118.477L119.299 114.65L95.0316 138.928C81.6839 152.281 69.5757 164.231 68.1237 165.484C60.4311 172.121 53.8312 175.844 45.8817 178.03C43.1198 178.789 42.1809 178.89 37.8225 178.899C32.4106 178.91 30.0742 178.451 25.895 176.558C18.9602 173.415 13.3548 166.827 11.5283 159.672C10.8558 157.038 10.8529 152.236 11.5219 149.419C13.1674 142.492 18.1168 136.455 25.0112 132.964C27.0532 131.929 27.4902 131.302 27.2664 129.724C27.1881 129.173 26.6598 128.726 25.2508 128.02C18.3386 124.556 12.9981 118.248 11.3812 111.638C10.7734 109.153 10.8494 103.675 11.5267 101.141C13.2995 94.51 18.1878 88.5067 24.4551 85.2621C35.9476 79.3129 50.3003 81.977 64.4786 92.691C69.3825 96.3969 73.9926 100.65 87.7333 114.145C94.7909 121.077 100.665 126.784 100.786 126.829C100.907 126.873 102.722 125.19 104.819 123.089L108.631 119.27L98.9269 109.539C87.2791 97.8602 79.168 90.1211 74.5766 86.3061C65.6883 78.921 56.9451 74.3622 47.425 72.1489C43.2684 71.1828 33.2989 71.0161 29.4762 71.8489ZM118.106 137.48L114.212 141.372L138.823 166.03C152.359 179.591 164.319 191.787 165.4 193.131C168.019 196.389 171.674 201.828 173.483 205.16C175.438 208.763 176.77 212.203 177.786 216.275C178.915 220.801 178.966 227.189 177.904 231.086C175.309 240.607 168.432 247.31 159.333 249.189C148.628 251.399 139.408 246.821 133.351 236.288C132.53 234.86 131.618 233.54 131.325 233.355C130.291 232.704 129.134 233.486 128.079 235.549C124.493 242.557 118.317 247.656 111.502 249.235C99.2537 252.074 86.3886 243.988 82.9519 231.291C82.0585 227.99 81.9974 221.129 82.8272 217.261C84.5204 209.366 88.8816 201.004 95.7706 192.443C97.2458 190.61 104.858 182.594 112.685 174.629L126.918 160.149L123.098 156.332L119.279 152.514L105.824 166.034C98.4237 173.469 91.0309 181.12 89.3956 183.035C81.0044 192.859 76.1024 201.02 73.5063 209.486C71.6861 215.422 71.3974 217.469 71.4258 224.247C71.4503 230.105 71.506 230.655 72.4239 234.13C74.2065 240.879 77.5668 246.512 82.7517 251.444C88.5204 256.93 95.0812 259.915 103.376 260.827C112.234 261.802 122.038 258.6 128.599 252.59L130.418 250.922L131.723 252.129C137.826 257.773 145.815 260.829 154.469 260.829C163.596 260.829 171.759 257.533 178.427 251.156C186.716 243.228 190.593 232.785 189.63 220.976C188.59 208.229 182.662 196.048 170.926 182.549C168.456 179.707 150.586 161.788 128.207 139.711L122 133.588L118.106 137.48Z" fill="white"/>
</svg>
