<svg width="271" height="271" viewBox="0 0 271 271" fill="none" xmlns="http://www.w3.org/2000/svg">
<path fill-rule="evenodd" clip-rule="evenodd" d="M126.594 262.375C126.605 262.37 126.616 262.365 126.626 262.359C126.659 262.343 126.692 262.325 126.725 262.308C126.75 262.295 126.775 262.282 126.8 262.268C126.742 262.298 126.685 262.33 126.626 262.359C126.616 262.365 126.605 262.37 126.594 262.375ZM132.376 241.84C132.38 241.833 132.383 241.827 132.387 241.82C132.385 241.824 132.379 241.836 132.376 241.84C132.371 241.848 132.365 241.859 132.359 241.867C132.354 241.877 132.348 241.887 132.342 241.897C132.348 241.887 132.354 241.876 132.359 241.867C132.366 241.857 132.37 241.85 132.376 241.84ZM135.326 238.16C135.328 238.16 135.323 238.16 135.326 238.16C135.328 238.16 135.336 238.158 135.338 238.158C135.334 238.159 135.33 238.159 135.326 238.16ZM237.168 182.855C237.171 182.855 237.166 182.856 237.168 182.855C237.171 182.854 237.181 182.85 237.184 182.85C237.179 182.851 237.174 182.854 237.168 182.855C237.11 182.875 237.052 182.894 236.993 182.913C236.965 182.923 236.936 182.932 236.908 182.941L236.993 182.913C237.052 182.894 237.11 182.875 237.168 182.855ZM265.672 154.283C265.673 154.287 265.674 154.301 265.675 154.306C265.674 154.299 265.673 154.29 265.672 154.283ZM139.752 135.157C139.761 135.166 139.771 135.175 139.781 135.184C139.772 135.176 139.761 135.165 139.752 135.157ZM105.648 131.711C105.666 131.727 105.682 131.743 105.697 131.756C105.699 131.757 105.695 131.754 105.697 131.756C105.701 131.759 105.71 131.767 105.713 131.769C105.72 131.775 105.727 131.78 105.733 131.785C105.728 131.781 105.718 131.774 105.713 131.769C105.708 131.765 105.702 131.761 105.697 131.756C105.682 131.743 105.666 131.727 105.648 131.711ZM105.697 131.756C105.702 131.76 105.709 131.766 105.713 131.769C105.721 131.776 105.726 131.779 105.733 131.785C105.728 131.781 105.718 131.774 105.713 131.769C105.706 131.764 105.704 131.762 105.697 131.756ZM135.6 32.5955C135.609 32.5943 135.619 32.593 135.628 32.5917C135.636 32.5905 135.645 32.5893 135.653 32.5878" fill="white"/>
<path fill-rule="evenodd" clip-rule="evenodd" d="M126.594 262.375C126.605 262.37 126.616 262.365 126.626 262.359C126.661 262.342 126.69 262.326 126.725 262.308L126.755 262.292L126.8 262.268L126.817 262.26C126.733 262.303 126.649 262.346 126.565 262.389C126.57 262.386 126.574 262.384 126.579 262.382C126.584 262.379 126.589 262.377 126.594 262.375ZM126.8 262.268C126.775 262.282 126.75 262.295 126.725 262.308C126.692 262.325 126.659 262.343 126.626 262.359C126.658 262.344 126.684 262.33 126.713 262.314L126.725 262.308C126.748 262.296 126.775 262.281 126.8 262.268ZM163.334 254.376C163.203 254.398 163.072 254.418 162.942 254.438C163.077 254.418 163.213 254.396 163.349 254.373C163.344 254.374 163.339 254.375 163.334 254.376ZM132.359 241.867C132.356 241.873 132.353 241.878 132.35 241.884C132.347 241.888 132.345 241.892 132.342 241.897C132.354 241.878 132.365 241.859 132.376 241.84C132.378 241.836 132.38 241.833 132.382 241.83C132.382 241.829 132.387 241.821 132.387 241.82L132.359 241.867ZM132.359 241.867C132.365 241.859 132.371 241.848 132.376 241.84C132.373 241.845 132.37 241.851 132.366 241.857C132.364 241.861 132.361 241.864 132.359 241.867ZM135.255 238.178C135.279 238.171 135.302 238.165 135.326 238.16C135.328 238.16 135.323 238.16 135.326 238.16C135.328 238.16 135.336 238.158 135.338 238.158C135.31 238.164 135.283 238.17 135.255 238.178ZM237.168 182.855C237.11 182.875 237.052 182.894 236.993 182.913L236.908 182.941C237 182.911 237.092 182.881 237.184 182.85C237.181 182.85 237.171 182.854 237.168 182.855C237.171 182.855 237.166 182.856 237.168 182.855ZM265.666 154.248C265.664 154.236 265.664 154.224 265.662 154.213L265.666 154.248L265.672 154.283C265.673 154.286 265.674 154.302 265.675 154.306C265.675 154.304 265.675 154.31 265.675 154.306C265.675 154.303 265.675 154.308 265.675 154.306L265.676 154.317L265.666 154.248ZM139.693 135.104C139.713 135.122 139.732 135.14 139.752 135.157C139.739 135.146 139.727 135.135 139.715 135.124C139.708 135.117 139.7 135.111 139.693 135.104ZM105.713 131.769C105.715 131.771 105.711 131.768 105.713 131.769C105.712 131.768 105.698 131.757 105.697 131.756C105.699 131.757 105.695 131.754 105.697 131.756C105.694 131.753 105.691 131.75 105.688 131.748C105.675 131.737 105.663 131.725 105.648 131.711C105.645 131.708 105.636 131.699 105.633 131.697C105.636 131.699 105.631 131.695 105.633 131.697C105.622 131.687 105.611 131.677 105.599 131.666C105.657 131.718 105.701 131.758 105.733 131.785C105.728 131.781 105.718 131.774 105.713 131.769ZM135.677 32.5825C135.685 32.5807 135.692 32.579 135.699 32.5776C135.658 32.5855 135.618 32.5924 135.579 32.5986C135.576 32.5989 135.582 32.598 135.579 32.5986C135.582 32.598 135.594 32.5963 135.6 32.5955C135.608 32.5943 135.62 32.5927 135.628 32.5917C135.638 32.5904 135.643 32.5896 135.653 32.5878C135.641 32.59 135.624 32.5923 135.611 32.5941C135.616 32.5935 135.623 32.5924 135.628 32.5917C135.636 32.5905 135.645 32.5893 135.653 32.5878C135.661 32.5864 135.669 32.5844 135.677 32.5825Z" fill="white"/>
<path fill-rule="evenodd" clip-rule="evenodd" d="M107.016 0.235278C117.541 -0.864756 127.577 1.92106 135.495 8.29387C142.059 3.09117 148.644 0.62435 157.226 0.103442L158.281 0.0546144C169.165 -0.307368 179.874 3.94454 187.743 11.7118L188.208 12.1777C192.967 17.0044 196.183 22.3198 198.003 28.5527L198.229 29.3515C202.732 45.8877 197.642 64.1544 185.179 80.0361L184.57 80.8017C181.247 84.937 175.156 91.4228 165.585 101.059L161.269 105.385L150.463 116.163L154.529 120.238C171.878 102.613 182.206 92.3014 184.955 89.8935L186.145 88.8642C198.413 78.381 209.819 72.7618 222.909 71.2831L223.497 71.2226C229.646 70.6441 237.845 71.6198 243.498 73.6376L244.172 73.8876C247.616 75.2059 252.035 77.5274 254.662 79.4599L255.527 80.1142C264.369 86.9886 270.078 97.2499 270.867 108.13L270.933 109.196C271.463 119.401 268.87 128.433 262.928 135.559C266.866 140.661 269.531 146.784 270.553 153.121L270.622 153.578C270.945 155.904 270.983 158.796 270.846 161.489C270.709 164.186 270.379 167.067 269.825 169.371L269.711 169.824C267.994 176.362 265.114 181.548 260.468 186.516L260.013 186.996C252.596 194.715 244 198.858 233.136 200.076L232.078 200.185C223.125 201.023 213.696 198.964 204.255 194.437C195.193 190.092 190.202 185.99 173.458 169.422L169.947 165.937L154.21 150.284L150.11 154.401C165.909 170.077 177.619 181.875 179.7 184.268L180.824 185.578C192.27 199.083 198.495 211.853 199.614 225.569L199.661 226.19C200.542 238.989 196.293 250.53 187.321 259.346L186.883 259.769C179.296 267.026 169.899 270.828 159.469 270.828C150.564 270.828 142.181 267.976 135.432 262.604C128.136 268.515 118.138 271.642 108.796 270.89L107.83 270.797C98.7948 269.803 91.3843 266.556 84.9282 260.646L84.3062 260.066C78.6506 254.687 74.8586 248.477 72.7856 241.123L72.5903 240.407C72.1266 238.651 71.7904 237.314 71.6157 235.584C71.4949 234.387 71.4551 233.037 71.438 231.233L71.4263 229.268C71.412 225.846 71.473 223.334 71.8228 220.852C72.1757 218.349 72.7977 216.048 73.7261 213.02L74.0024 212.145C76.8366 203.413 81.8775 195.147 89.7935 185.732L90.5942 184.787C92.3836 182.692 99.9349 174.887 107.28 167.507L120.243 154.481L116.085 150.316L109.624 156.809C101.523 164.946 94.7598 171.678 89.7798 176.566C85.2459 181.017 81.943 184.187 80.5386 185.358L80.2837 185.565C64.9502 197.603 48.646 202.738 33.0063 199.304L32.2622 199.134C17.6374 195.662 5.54141 184.444 1.39307 170.314L1.20166 169.64C0.787647 168.128 0.485835 166.889 0.320799 165.301C0.2063 164.199 0.163513 162.978 0.145018 161.429L0.132323 159.763C0.114391 155.592 0.226116 153.255 0.81201 150.841L0.966307 150.225C2.38089 144.734 4.70196 140.026 8.18017 135.577C2.99814 129.088 0.554938 122.67 0.0864245 114.323L0.0454088 113.459C-0.262787 105.646 1.01632 99.2608 4.3833 92.9941L4.65967 92.4882C10.539 81.9152 20.8557 74.6996 33.4126 71.9638L33.9009 71.8652C36.4211 71.3973 40.0951 71.2697 43.4097 71.3251C46.9784 71.3848 50.9439 71.6709 53.5571 72.2782L54.5308 72.5126C64.5518 75.0108 73.6878 79.9113 82.7729 87.4599L83.7124 88.2538C88.6161 92.449 96.5641 100.076 107.467 111.009L116.657 120.223L120.585 116.292C120.238 115.946 119.889 115.599 119.538 115.252C119.067 114.783 118.593 114.313 118.12 113.842C107.06 102.83 95.3752 91.1047 93.3013 88.8447C86.1796 81.0831 81.4742 74.5829 77.8003 67.2099L77.4487 66.4941C75.0318 61.517 73.5752 57.5338 72.4702 52.7363L72.2534 51.7656C71.677 49.0942 71.4125 45.1942 71.3745 41.6591C71.337 38.1698 71.5114 34.3166 72.0698 31.8134L72.23 31.1171C73.938 23.9734 77.1166 18.2074 82.2954 12.7685L82.9175 12.1279C89.3886 5.58293 97.2273 1.49299 105.913 0.364185L107.016 0.235278ZM126.565 262.389C126.575 262.384 126.584 262.379 126.594 262.375C126.605 262.37 126.616 262.365 126.626 262.359C126.67 262.338 126.712 262.315 126.755 262.292C126.77 262.284 126.785 262.276 126.8 262.268L126.817 262.26C126.733 262.303 126.649 262.346 126.565 262.389ZM163.334 254.376C163.203 254.398 163.072 254.418 162.942 254.438C163.077 254.418 163.213 254.396 163.349 254.373C163.344 254.374 163.339 254.375 163.334 254.376ZM132.376 241.84C132.38 241.833 132.383 241.827 132.387 241.82L132.359 241.867L132.342 241.897C132.354 241.878 132.365 241.859 132.376 241.84ZM135.255 238.178C135.279 238.171 135.302 238.165 135.326 238.16L135.338 238.158C135.31 238.164 135.283 238.17 135.255 238.178ZM237.168 182.855L237.184 182.85C237.092 182.881 237 182.911 236.908 182.941L236.993 182.913C237.052 182.894 237.11 182.875 237.168 182.855ZM265.672 154.283L265.666 154.248L265.676 154.317C265.676 154.313 265.675 154.309 265.675 154.306L265.672 154.283ZM139.752 135.157C139.766 135.171 139.784 135.187 139.799 135.2C139.805 135.206 139.811 135.211 139.817 135.217L135.335 139.787L130.911 135.423L135.383 130.931C136.491 132.016 137.444 132.947 138.205 133.683C138.81 134.268 139.31 134.747 139.673 135.086C139.699 135.11 139.725 135.134 139.752 135.157ZM105.633 131.697L105.648 131.711C105.666 131.727 105.682 131.743 105.697 131.756C105.701 131.759 105.71 131.767 105.713 131.769C105.718 131.774 105.728 131.781 105.733 131.785C105.701 131.758 105.657 131.718 105.599 131.666C105.611 131.677 105.622 131.687 105.633 131.697ZM121.251 183.134C113.834 190.681 106.874 198.01 104.977 200.208L104.667 200.577C98.3045 208.483 94.4446 215.923 92.8628 222.66L92.7163 223.309C92.4076 224.749 92.2222 227.029 92.2437 229.444C92.2628 231.595 92.443 233.428 92.6763 234.549L92.7788 234.984L92.9146 235.464C95.8893 245.475 106.088 251.516 115.374 249.364L115.86 249.243C120.877 247.909 125.713 243.968 128.627 238.271L128.898 237.765C129.569 236.56 130.528 235.225 131.911 234.291C132.763 233.715 133.903 233.21 135.273 233.14C136.595 233.072 137.799 233.425 138.795 234.006L138.992 234.126L139.306 234.341C139.963 234.827 140.409 235.386 140.517 235.521L140.533 235.541C140.782 235.848 141.029 236.188 141.253 236.513C141.709 237.172 142.216 237.977 142.686 238.795L143.187 239.638C145.72 243.755 148.685 246.481 151.823 248.039C155.133 249.683 158.964 250.192 163.323 249.292L163.985 249.143C170.778 247.495 176.009 242.372 178.081 234.771L178.153 234.487C178.836 231.672 178.86 226.864 178.103 223.221L177.935 222.485C177.019 218.813 175.839 215.768 174.089 212.546C172.437 209.503 168.953 204.311 166.503 201.264C166.476 201.232 166.291 201.022 165.851 200.552C165.417 200.087 164.826 199.466 164.091 198.702C162.623 197.175 160.616 195.113 158.212 192.662C154.609 188.988 150.129 184.453 145.262 179.559L134.94 169.206L121.251 183.134ZM134.296 238.776C134.365 238.709 134.434 238.647 134.502 238.59L134.296 238.776ZM134.709 238.434L134.502 238.59C134.571 238.533 134.641 238.481 134.709 238.434ZM233.995 92.7655C230.934 91.9653 225.447 91.9719 221.622 92.87L221.257 92.9599C214.52 94.694 208.467 97.8638 201.232 103.731L200.528 104.309C199.867 104.855 196.581 108.009 191.542 112.964C187.854 116.59 183.359 121.05 178.558 125.849L173.674 130.741L169.08 135.353L169.112 135.383C169.507 135.744 170.025 136.236 170.615 136.807C171.803 137.957 173.385 139.527 175.078 141.241L177.56 143.747C183.355 149.578 189.134 155.265 193.945 159.894C199.569 165.306 203.586 168.993 204.883 169.97C216.982 179.074 227.857 181.114 236.38 177.823L237.033 177.56C250.353 171.991 253.785 157.135 245.639 147.898L245.236 147.456C243.012 145.093 241.623 143.978 239.28 142.657L238.798 142.391C237.935 141.919 237.053 141.381 236.293 140.75C235.561 140.141 234.561 139.136 234.03 137.629C232.491 133.253 235.372 129.543 238.787 128.417L238.935 128.362C239.733 128.043 241.379 127.022 243.329 125.318C245.329 123.57 246.956 121.709 247.706 120.436L247.992 119.937C249.364 117.471 249.89 115.381 249.918 111.983L249.92 111.258C249.913 109.656 249.826 108.668 249.663 107.841C249.505 107.045 249.242 106.228 248.707 105.003L248.46 104.452C245.937 98.9284 241.124 94.8114 234.628 92.9394L233.995 92.7655ZM66.4644 101.68C53.3618 91.7786 41.2832 90.0219 32.1851 94.4853L31.7544 94.7021C26.8539 97.2391 23.0023 101.901 21.4956 106.943L21.3579 107.432C21.1788 108.102 20.9979 109.618 20.9722 111.476C20.9463 113.344 21.0871 114.83 21.2388 115.45L21.3618 115.918C22.7235 120.755 26.8726 125.734 32.4917 128.55L33.0933 128.861C33.7158 129.197 34.3893 129.607 34.9858 130.111C35.8355 130.83 36.8185 131.988 37.1577 133.676L37.2173 134.02L37.2788 134.54C37.3994 135.828 37.3166 137.645 36.0923 139.404C34.9655 141.023 33.2832 141.911 32.271 142.424C26.5621 145.315 22.661 150.213 21.3872 155.575C21.1747 156.47 21.0219 157.953 21.0229 159.611C21.0239 161.077 21.1445 162.329 21.3032 163.123L21.3735 163.434L21.5171 163.962C23.0962 169.402 27.5322 174.544 32.9595 177.004L33.6421 177.307C35.1697 177.968 36.2567 178.319 37.3599 178.536C38.6642 178.792 40.2194 178.905 42.813 178.899C45.0161 178.895 46.0891 178.863 46.9146 178.774C47.6424 178.696 48.2671 178.563 49.5562 178.209L50.2183 178.021C57.0171 176.05 62.8267 172.765 69.8579 166.698L69.8774 166.681L69.8876 166.672C69.8997 166.661 69.9146 166.648 69.9321 166.632C69.9787 166.589 70.0396 166.534 70.1147 166.464C70.2659 166.323 70.4613 166.139 70.7007 165.911C71.1794 165.455 71.8104 164.846 72.5786 164.099C74.1138 162.606 76.1708 160.587 78.605 158.184C83.4723 153.381 89.8283 147.063 96.4956 140.393L101.867 135.018C101.688 134.85 101.473 134.646 101.229 134.413C100.538 133.751 99.5621 132.807 98.3765 131.655C97.1896 130.502 95.7859 129.134 94.2378 127.62L89.23 122.712C76.3053 110.018 71.6484 105.696 67.3267 102.341L66.4644 101.68ZM176.697 32.1464C170.728 20.3012 155.287 17.7305 146.891 26.0341C145.126 27.7792 143.679 29.7326 142.422 32.1161L142.173 32.5986L142.135 32.6744C141.505 33.927 140.149 36.6205 137.083 37.3906C136.508 37.5348 135.537 37.7248 134.392 37.5634C133.121 37.3841 132.056 36.8375 131.217 36.1298C129.939 35.0519 129.099 33.4667 128.569 32.4688L128.555 32.4423C125.411 26.5138 120.644 22.7434 115.787 21.5556L115.316 21.4491C114.434 21.264 112.859 21.1505 111.031 21.2079C109.212 21.2652 107.603 21.4774 106.659 21.7304C100.413 23.4056 95.0598 28.6419 92.9868 35.412L92.7964 36.0712C92.4968 37.1779 92.2713 39.0402 92.2476 41.2109C92.2271 43.0855 92.3609 44.8967 92.604 46.2939L92.7144 46.8661L92.8774 47.5956C94.6183 55.0997 98.1302 61.6702 105.723 70.8329L106.064 71.2187C108.346 73.731 119.199 84.8222 131.472 97.1249L135.637 101.3L147.98 88.87L151.771 85.0351C169.741 66.7705 173.267 61.7108 176.671 52.5478C178.092 48.7221 178.567 46.3063 178.609 42.2548L178.612 41.4218C178.598 37.1908 178.185 35.2368 176.955 32.6689L176.697 32.1464ZM135.653 32.5878L135.699 32.5776C135.658 32.5855 135.618 32.5924 135.579 32.5986C135.586 32.5975 135.593 32.5965 135.6 32.5955C135.615 32.5936 135.638 32.5905 135.653 32.5878Z" fill="white"/>
</svg>
